<svg width="1297" height="564" viewBox="0 0 1297 564" fill="none" xmlns="http://www.w3.org/2000/svg">
<g id="Floor1">
<rect id="zal" x="625.5" y="268.5" width="217" height="295" fill="#D9D9D9" stroke="black"/>
<rect id="storage" x="573.5" y="129.5" width="107" height="98" fill="#D9D9D9" stroke="black"/>
<rect id="wc" x="681.5" y="130.5" width="44" height="97" fill="#D9D9D9" stroke="black"/>
<rect id="coridor4" x="625.5" y="99.5" width="671" height="31" fill="#D9D9D9" stroke="black"/>
<rect id="coridor3" x="726.5" y="130.5" width="40" height="97" fill="#D9D9D9" stroke="black"/>
<rect id="coridor2" x="625.5" y="227.5" width="217" height="41" fill="#D9D9D9" stroke="black"/>
<rect id="coridor1" x="1.5" y="227.5" width="624" height="27" fill="#D9D9D9" stroke="black"/>
<g id="odd2">
<g clip-path="url(#clip0_9_75)">
<rect x="767" y="130" width="530" height="98" fill="white"/>
<rect id="m1" x="1196.5" y="130.5" width="43" height="97" fill="#D9D9D9" stroke="black"/>
<rect id="b1" x="1240.5" y="130.5" width="56" height="97" fill="#D9D9D9" stroke="black"/>
<rect id="m2" x="1152.5" y="130.5" width="43" height="97" fill="#D9D9D9" stroke="black"/>
<rect id="m3" x="1109.5" y="130.5" width="42" height="97" fill="#D9D9D9" stroke="black"/>
<rect id="b3" x="1057.5" y="130.5" width="51" height="97" fill="#D9D9D9" stroke="black"/>
<rect id="enter" x="1004.5" y="130.5" width="52" height="97" fill="#D9D9D9" stroke="black"/>
<rect id="vahta" x="961.5" y="130.5" width="42" height="97" fill="#D9D9D9" stroke="black"/>
<rect id="kvant" x="766.5" y="130.5" width="150" height="97" fill="#D9D9D9" stroke="black"/>
<rect id="m4" x="917.5" y="130.5" width="43" height="97" fill="#D9D9D9" stroke="black"/>
</g>
<rect x="767.5" y="130.5" width="529" height="97" stroke="black"/>
</g>
<g id="odd1" clip-path="url(#clip1_9_75)">
<rect width="624" height="100" transform="translate(1 254)" fill="white"/>
<rect id="unknown1" x="574.5" y="254.5" width="51" height="99" fill="#D9D9D9" stroke="black"/>
<rect id="m1_2" x="529.5" y="254.5" width="44" height="99" fill="#D9D9D9" stroke="black"/>
<rect id="m2_2" x="486.5" y="254.5" width="42" height="99" fill="#D9D9D9" stroke="black"/>
<rect id="b2" x="434.5" y="254.5" width="51" height="99" fill="#D9D9D9" stroke="black"/>
<rect id="b3_2" x="382.5" y="254.5" width="51" height="99" fill="#D9D9D9" stroke="black"/>
<rect id="m3_2" x="338.5" y="254.5" width="43" height="99" fill="#D9D9D9" stroke="black"/>
<rect id="b4" x="242.5" y="254.5" width="51" height="99" fill="#D9D9D9" stroke="black"/>
<rect id="b5" x="190.5" y="254.5" width="51" height="99" fill="#D9D9D9" stroke="black"/>
<rect id="m4_2" x="294.5" y="254.5" width="43" height="99" fill="#D9D9D9" stroke="black"/>
<rect id="big" x="1.5" y="254.5" width="188" height="99" fill="#D9D9D9" stroke="black"/>
</g>
<g id="even2" clip-path="url(#clip2_9_75)">
<rect width="672" height="100" transform="translate(625)" fill="white"/>
<rect id="kastellana" x="625.5" y="0.5" width="99" height="99" fill="#D9D9D9" stroke="black"/>
<rect id="stairs1" x="725.5" y="0.5" width="43" height="99" fill="#D9D9D9" stroke="black"/>
<rect id="m1_3" x="769.5" y="0.5" width="43" height="99" fill="#D9D9D9" stroke="black"/>
<rect id="b1_2" x="813.5" y="0.5" width="52" height="99" fill="#D9D9D9" stroke="black"/>
<rect id="b2_2" x="866.5" y="0.5" width="52" height="99" fill="#D9D9D9" stroke="black"/>
<rect id="m2_3" x="919.5" y="0.5" width="42" height="99" fill="#D9D9D9" stroke="black"/>
<rect id="m3_3" x="962.5" y="0.5" width="42" height="99" fill="#D9D9D9" stroke="black"/>
<rect id="b3_3" x="1005.5" y="0.5" width="52" height="99" fill="#D9D9D9" stroke="black"/>
<rect id="b4_2" x="1058.5" y="0.5" width="52" height="99" fill="#D9D9D9" stroke="black"/>
<rect id="m4_3" x="1111.5" y="0.5" width="41" height="99" fill="#D9D9D9" stroke="black"/>
<rect id="stairs2" x="1153.5" y="0.5" width="43" height="99" fill="#D9D9D9" stroke="black"/>
<rect id="service" x="1197.5" y="0.5" width="42" height="99" fill="#D9D9D9" stroke="black"/>
<rect id="komenda" x="1240.5" y="0.5" width="56" height="99" fill="#D9D9D9" stroke="black"/>
</g>
<g id="even1" clip-path="url(#clip3_9_75)">
<rect width="572" height="98" transform="translate(1 129)" fill="white"/>
<rect id="service_2" x="1.5" y="129.5" width="56" height="98" fill="#D9D9D9" stroke="black"/>
<rect id="m1_4" x="58.5" y="129.5" width="42" height="98" fill="#D9D9D9" stroke="black"/>
<rect id="stairs" x="101.5" y="129.5" width="43" height="98" fill="#D9D9D9" stroke="black"/>
<rect id="m2_4" x="145.5" y="129.5" width="42" height="98" fill="#D9D9D9" stroke="black"/>
<rect id="b2_3" x="188.5" y="129.5" width="52" height="98" fill="#D9D9D9" stroke="black"/>
<rect id="b3_4" x="241.5" y="129.5" width="52" height="98" fill="#D9D9D9" stroke="black"/>
<rect id="m3_4" x="294.5" y="129.5" width="42" height="98" fill="#D9D9D9" stroke="black"/>
<rect id="m4_4" x="337.5" y="129.5" width="42" height="98" fill="#D9D9D9" stroke="black"/>
<rect id="b4_3" x="380.5" y="129.5" width="52" height="98" fill="#D9D9D9" stroke="black"/>
<rect id="b5_2" x="433.5" y="129.5" width="52" height="98" fill="#D9D9D9" stroke="black"/>
<rect id="m5" x="486.5" y="129.5" width="42" height="98" fill="#D9D9D9" stroke="black"/>
<rect id="m6" x="529.5" y="129.5" width="43" height="98" fill="#D9D9D9" stroke="black"/>
</g>
</g>
<defs>
<clipPath id="clip0_9_75">
<rect x="767" y="130" width="530" height="98" fill="white"/>
</clipPath>
<clipPath id="clip1_9_75">
<rect width="624" height="100" fill="white" transform="translate(1 254)"/>
</clipPath>
<clipPath id="clip2_9_75">
<rect width="672" height="100" fill="white" transform="translate(625)"/>
</clipPath>
<clipPath id="clip3_9_75">
<rect width="572" height="98" fill="white" transform="translate(1 129)"/>
</clipPath>
</defs>
</svg>
