<?xml version="1.0" encoding="UTF-8" standalone="no"?>
<svg
   width="270.40417mm"
   height="117.475mm"
   viewBox="0 0 1022 444"
   fill="none"
   version="1.1"
   id="svg9"
   sodipodi:docname="floor1.svg"
   inkscape:version="1.3.2 (091e20e, 2023-11-25, custom)"
   xmlns:inkscape="http://www.inkscape.org/namespaces/inkscape"
   xmlns:sodipodi="http://sodipodi.sourceforge.net/DTD/sodipodi-0.dtd"
   xmlns="http://www.w3.org/2000/svg"
   xmlns:svg="http://www.w3.org/2000/svg">
  <sodipodi:namedview
     id="namedview9"
     pagecolor="#ffffff"
     bordercolor="#000000"
     borderopacity="0.25"
     inkscape:showpageshadow="2"
     inkscape:pageopacity="0.0"
     inkscape:pagecheckerboard="0"
     inkscape:deskcolor="#d1d1d1"
     inkscape:zoom="1.1765557"
     inkscape:cx="477.24047"
     inkscape:cy="142.3647"
     inkscape:window-width="1920"
     inkscape:window-height="1009"
     inkscape:window-x="1912"
     inkscape:window-y="-8"
     inkscape:window-maximized="1"
     inkscape:current-layer="svg9"
     inkscape:document-units="mm" />
  <defs
     id="defs9">
    <clipPath
       id="clip0_9_75">
      <rect
         x="455"
         y="348"
         width="571"
         height="78"
         fill="#ffffff"
         id="rect6" />
    </clipPath>
    <clipPath
       id="clip1_9_75">
      <rect
         width="497"
         height="78"
         fill="#ffffff"
         transform="translate(4,448)"
         id="rect7"
         x="0"
         y="0" />
    </clipPath>
    <clipPath
       id="clip2_9_75">
      <rect
         width="530"
         height="79"
         fill="#ffffff"
         transform="translate(496,247)"
         id="rect8"
         x="0"
         y="0" />
    </clipPath>
    <clipPath
       id="clip3_9_75">
      <rect
         width="451"
         height="78"
         fill="#ffffff"
         transform="translate(4,348)"
         id="rect9"
         x="0"
         y="0" />
    </clipPath>
    <clipPath
       id="clip0_9_75-0">
      <rect
         x="455"
         y="348"
         width="571"
         height="78"
         fill="#ffffff"
         id="rect6-6" />
    </clipPath>
    <clipPath
       id="clip1_9_75-6">
      <rect
         width="497"
         height="78"
         fill="#ffffff"
         transform="translate(4,448)"
         id="rect7-5"
         x="0"
         y="0" />
    </clipPath>
    <clipPath
       id="clip2_9_75-8">
      <rect
         width="530"
         height="79"
         fill="#ffffff"
         transform="translate(496,247)"
         id="rect8-3"
         x="0"
         y="0" />
    </clipPath>
    <clipPath
       id="clip3_9_75-9">
      <rect
         width="451"
         height="78"
         fill="#ffffff"
         transform="translate(4,348)"
         id="rect9-6"
         x="0"
         y="0" />
    </clipPath>
  </defs>
  <g
     id="Floor1"
     transform="translate(-4,-247)">
    <rect
       id="zal"
       x="501.5"
       y="425.5"
       width="164"
       height="265"
       fill="#d9d9d9"
       stroke="#000000" />
    <rect
       id="coridor4"
       x="496.5"
       y="325.5"
       width="529"
       height="23"
       fill="#d9d9d9"
       stroke="#000000" />
    <rect
       id="coridor1"
       x="4.5"
       y="426.5"
       width="497"
       height="21"
       fill="#d9d9d9"
       stroke="#000000" />
    <g
       id="odd2">
      <g
         clip-path="url(#clip0_9_75-0)"
         id="g2">
        <rect
           x="455"
           y="348"
           width="571"
           height="78"
           fill="#ffffff"
           id="rect1" />
        <rect
           id="kvant"
           x="643.5"
           y="347.5"
           width="83"
           height="78"
           fill="#d9d9d9"
           stroke="#000000" />
        <g
           id="114">
          <rect
             id="m114"
             x="947.284"
             y="378.745"
             width="34.294102"
             height="46.7551"
             fill="#a5a5a5"
             stroke="#000000" />
          <rect
             id="b114"
             x="981.79401"
             y="348.5"
             width="43.705898"
             height="77"
             fill="#a5a5a5"
             stroke="#000000" />
          <rect
             id="union114"
             x="947.5"
             y="349.5"
             width="77"
             height="75"
             stroke="#000000"
             stroke-width="3" />
        </g>
        <g
           id="kitchen">
          <path
             id="Vector 1"
             d="m 912.795,377.449 h 11.932 m 0,0 h 7.955 v -9.551 h -3.977 m -3.978,9.551 v -9.551 h 3.978 m 0,0 v 3.582 -6.766"
             stroke="#000000" />
          <rect
             id="kitchen_2"
             x="912.5"
             y="348.5"
             width="34"
             height="77"
             fill="#d9d9d9"
             stroke="#000000" />
        </g>
        <g
           id="112">
          <rect
             id="m112"
             x="876.5"
             y="379.5"
             width="34"
             height="46"
             fill="#a5a5a5"
             stroke="#000000" />
          <rect
             id="b112"
             x="836.5"
             y="348.5"
             width="40"
             height="77"
             fill="#a5a5a5"
             stroke="#000000" />
          <rect
             id="unit112"
             x="837.5"
             y="349.5"
             width="74"
             height="75"
             stroke="#000000"
             stroke-width="3" />
        </g>
        <rect
           id="enter"
           x="794.5"
           y="348.5"
           width="42"
           height="77"
           fill="#d9d9d9"
           stroke="#000000" />
        <rect
           id="vahta"
           x="760.5"
           y="348.5"
           width="34"
           height="77"
           fill="#d9d9d9"
           stroke="#000000" />
        <g
           id="110">
          <rect
             id="m110"
             x="727.5"
             y="378.5"
             width="32"
             height="45"
             fill="#a5a5a5"
             stroke="#000000" />
          <rect
             id="unit110"
             x="728.5"
             y="349.5"
             width="30"
             height="75"
             stroke="#000000"
             stroke-width="3" />
        </g>
        <rect
           id="coridor2"
           x="573.5"
           y="348.5"
           width="35"
           height="77"
           fill="#d9d9d9"
           stroke="#000000" />
        <rect
           id="storage"
           x="455.5"
           y="348.5"
           width="86"
           height="77"
           fill="#d9d9d9"
           stroke="#000000" />
        <rect
           id="coridor3"
           x="608.5"
           y="346.5"
           width="35"
           height="80"
           fill="#d9d9d9"
           stroke="#000000" />
      </g>
      <rect
         x="455.5"
         y="348.5"
         width="570"
         height="77"
         stroke="#000000"
         id="rect2" />
    </g>
    <g
       id="odd1"
       clip-path="url(#clip1_9_75-6)">
      <rect
         width="497"
         height="78"
         transform="translate(4,448)"
         fill="#ffffff"
         id="rect3"
         x="0"
         y="0" />
      <g
         id="100">
        <rect
           id="m100(4)"
           x="114.332"
           y="481.26001"
           width="37.1684"
           height="44.240002"
           fill="#a5a5a5"
           stroke="#000000" />
        <rect
           id="m100(3)"
           x="81.615799"
           y="481.26001"
           width="32.494701"
           height="44.240002"
           fill="#a5a5a5"
           stroke="#000000" />
        <rect
           id="m100(2)"
           x="48.900002"
           y="481.26001"
           width="32.494701"
           height="44.240002"
           fill="#a5a5a5"
           stroke="#000000" />
        <rect
           id="m100(1)"
           x="4.5"
           y="481.26001"
           width="44.178902"
           height="44.240002"
           fill="#a5a5a5"
           stroke="#000000" />
        <rect
           id="unit100"
           x="5.5"
           y="449.5"
           width="145"
           height="75"
           stroke="#000000"
           stroke-width="3" />
      </g>
      <rect
         id="unknow"
         x="151.5"
         y="448.5"
         width="41"
         height="77"
         fill="#d9d9d9"
         stroke="#000000" />
      <g
         id="102">
        <rect
           id="b102"
           x="192.5"
           y="448.5"
           width="41.183701"
           height="77"
           fill="#a5a5a5"
           stroke="#000000" />
        <rect
           id="m102"
           x="233.888"
           y="481.26001"
           width="35.612202"
           height="44.240002"
           fill="#a5a5a5"
           stroke="#000000" />
        <rect
           id="unit102"
           x="193.5"
           y="449.5"
           width="75"
           height="75"
           stroke="#000000"
           stroke-width="3" />
      </g>
      <g
         id="104">
        <rect
           id="b104"
           x="303.38"
           y="448.5"
           width="39.560001"
           height="77"
           fill="#a5a5a5"
           stroke="#000000" />
        <rect
           id="m104"
           x="269.06"
           y="481.26001"
           width="34.099998"
           height="44.240002"
           fill="#a5a5a5"
           stroke="#000000" />
        <rect
           id="unit104"
           x="268.5"
           y="449.5"
           width="75"
           height="75"
           stroke="#000000"
           stroke-width="3" />
      </g>
      <g
         id="kitchen_3">
        <rect
           id="kitchen_4"
           x="419.5"
           y="448.5"
           width="35"
           height="77"
           fill="#d9d9d9"
           stroke="#000000" />
        <path
           id="Vector 1_2"
           d="m 419.4,479.98 h 12 m 0,0 h 8 v -9.36 h -4 m -4,9.36 v -9.36 h 4 m 0,0 v 3.51 -6.63"
           stroke="#000000" />
      </g>
      <rect
         id="unknown1"
         x="453.5"
         y="448.5"
         width="48"
         height="77"
         fill="#d9d9d9"
         stroke="#000000" />
      <g
         id="106">
        <rect
           id="m106"
           x="384.314"
           y="481.26001"
           width="35.1856"
           height="44.240002"
           fill="#a5a5a5"
           stroke="#000000" />
        <rect
           id="b106"
           x="343.30399"
           y="448.5"
           width="40.8144"
           height="77"
           fill="#a5a5a5"
           stroke="#000000" />
        <rect
           id="unit106"
           x="343.5"
           y="449.5"
           width="75"
           height="75"
           stroke="#000000"
           stroke-width="3" />
      </g>
    </g>
    <g
       id="even2"
       clip-path="url(#clip2_9_75-8)">
      <rect
         width="530"
         height="79"
         transform="translate(496,247)"
         fill="#ffffff"
         id="rect4"
         x="0"
         y="0" />
      <rect
         id="kastellana"
         x="496.5"
         y="247.5"
         width="77"
         height="78"
         fill="#d9d9d9"
         stroke="#000000" />
      <g
         id="stairs2">
        <rect
           id="stairs2_2"
           x="572.5"
           y="247.5"
           width="37.576099"
           height="78"
           fill="#d9d9d9"
           stroke="#000000" />
        <path
           id="stairs2_3"
           d="m 572,277 h 9.808 m 8.546,28 v -4 m 0,4 h -8.546 m 8.546,0 h 1.709 m -19.645,0 h 9.39 m 27.774,0 h -9.307 m -9.921,-4 h -17.936 m 17.936,0 v -4 m 0,0 h -17.936 m 17.936,0 v -4 m 0,0 h -17.519 m 17.519,0 v -4 m 0,0 h -17.519 m 17.519,0 v -4 m 0,0 h -17.519 m 17.519,0 v -4 m 0,0 v -4 h -8.546 m 8.546,4 h -17.936 m 9.39,-4 v 28 m 0,0 h 10.255 m 0,0 v -4 m 0,4 h 8.212 m -8.212,-12 5.475,-4 m -5.475,4 h 17.519 m -17.519,0 v 4 m 10.95,-12 6.569,-4.8 v 4.8 z m 0,0 -2.738,2 m 9.307,2 h -12.044 m 0,0 2.737,-2 m 9.307,10 h -17.519 m 0,0 v 4 M 610,301 h -17.937 m 8.212,-14 v 18"
           stroke="#000000" />
      </g>
      <g
         id="117">
        <rect
           id="m117"
           x="610.5"
           y="247.5"
           width="32.777802"
           height="46.200001"
           fill="#a5a5a5"
           stroke="#000000" />
        <rect
           id="b117"
           x="643.51001"
           y="247.5"
           width="40.454498"
           height="79"
           fill="#a5a5a5"
           stroke="#000000" />
        <rect
           id="unit117"
           x="611.5"
           y="248.5"
           width="73"
           height="77"
           stroke="#000000"
           stroke-width="3" />
      </g>
      <g
         id="115">
        <rect
           id="b115"
           x="682.5"
           y="247.5"
           width="43.444401"
           height="78"
           fill="#a5a5a5"
           stroke="#000000" />
        <rect
           id="m115"
           x="726.13599"
           y="247.5"
           width="33.747501"
           height="45.610001"
           fill="#a5a5a5"
           stroke="#000000" />
        <rect
           id="unit115"
           x="683.5"
           y="248.5"
           width="77"
           height="76"
           stroke="#000000"
           stroke-width="3" />
      </g>
      <g
         id="113">
        <rect
           id="m113"
           x="760.28802"
           y="247.5"
           width="32.878799"
           height="45.610001"
           fill="#a5a5a5"
           stroke="#000000" />
        <rect
           id="b113"
           x="793.37903"
           y="247.5"
           width="41.545502"
           height="78"
           fill="#a5a5a5"
           stroke="#000000" />
        <rect
           id="unit113"
           x="760.5"
           y="248.5"
           width="75"
           height="76"
           stroke="#000000"
           stroke-width="3" />
      </g>
      <g
         id="111">
        <rect
           id="b111"
           x="834.5"
           y="247.5"
           width="43.0737"
           height="78"
           fill="#a5a5a5"
           stroke="#000000" />
        <rect
           id="m111"
           x="877.742"
           y="247.5"
           width="34.7579"
           height="46.400002"
           fill="#a5a5a5"
           stroke="#000000" />
        <rect
           id="unit111"
           x="835.5"
           y="249.28999"
           width="76"
           height="75.209999"
           stroke="#000000"
           stroke-width="3" />
      </g>
      <g
         id="stairs">
        <rect
           id="stairs2_4"
           x="912.5"
           y="247.5"
           width="33"
           height="78"
           fill="#d9d9d9"
           stroke="#000000" />
        <path
           id="stairs_2"
           d="m 912,277.81 h 8.886 m 7.728,27.65 v -3.95 m 0,3.95 h -7.728 m 7.728,0 h 1.545 m -17.994,0 h 8.721 m 25.114,0 h -8.415 m -8.971,-3.95 h -16.449 m 16.449,0 v -3.95 m 0,0 H 912 m 16.614,0 v -3.95 m 0,0 h -15.841 m 15.841,0 v -3.95 m 0,0 h -15.841 m 15.841,0 v -3.95 m 0,0 h -15.841 m 15.841,0 v -3.95 m 0,0 v -3.95 h -7.728 m 7.728,3.95 H 912 m 8.886,-3.95 v 27.65 m 0,0 h 9.273 m 0,0 v -3.95 m 0,3.95 h 7.426 m -7.426,-11.85 4.95,-3.95 m -4.95,3.95 H 946 m -15.841,0 v 3.95 m 9.901,-11.85 5.94,-4.74 v 4.74 z m 0,0 -2.475,1.975 M 946,289.66 h -10.891 m 0,0 2.476,-1.975 M 946,297.56 h -15.841 m 0,0 v 3.95 m 15.455,0 h -15.455 m 7.426,-13.825 v 17.775"
           stroke="#000000" />
      </g>
      <rect
         id="service"
         x="945.5"
         y="247.5"
         width="36"
         height="78"
         fill="#d9d9d9"
         stroke="#000000" />
      <rect
         id="komenda"
         x="980.5"
         y="247.5"
         width="45"
         height="78"
         fill="#d9d9d9"
         stroke="#000000" />
    </g>
    <g
       id="even1"
       clip-path="url(#clip3_9_75-9)">
      <rect
         width="451"
         height="78"
         transform="translate(4,348)"
         fill="#ffffff"
         id="rect5"
         x="0"
         y="0" />
      <g
         id="101">
        <rect
           id="m101(1)"
           x="4.5"
           y="348.5"
           width="44.029999"
           height="46.9286"
           fill="#a5a5a5"
           stroke="#000000" />
        <rect
           id="m101(2)"
           x="48.740002"
           y="348.5"
           width="33.759998"
           height="46.9286"
           fill="#a5a5a5"
           stroke="#000000" />
        <rect
           id="unit101"
           x="5.5"
           y="349.5"
           width="76"
           height="75"
           stroke="#000000"
           stroke-width="3" />
      </g>
      <g
         id="103">
        <rect
           id="m103"
           x="115.5"
           y="348.5"
           width="34.469398"
           height="44.696999"
           fill="#a5a5a5"
           stroke="#000000" />
        <rect
           id="b103"
           x="150.16299"
           y="348.5"
           width="42.530602"
           height="77"
           fill="#a5a5a5"
           stroke="#000000" />
        <rect
           id="unit103"
           x="116.5"
           y="349.5"
           width="76"
           height="75"
           stroke="#000000"
           stroke-width="3" />
      </g>
      <g
         id="stairs_3">
        <rect
           id="stairs_4"
           x="83.5"
           y="348.5"
           width="32"
           height="77"
           fill="#d9d9d9"
           stroke="#000000" />
        <path
           id="stairs_5"
           d="m 83.3837,373 h 7.6744 m 7.6745,27 v -3.857 m 0,3.857 h -7.6745 m 7.6745,0 h 1.5344 m -16.8833,0 h 7.6744 M 116,400 h -8.358 m -8.9094,-3.857 H 83.3837 m 15.3489,0 v -3.857 m 0,0 H 83.3837 m 15.3489,0 v -3.857 m 0,0 H 83 m 15.7326,0 v -3.858 m 0,0 H 83 m 15.7326,0 v -3.857 m 0,0 H 83 m 15.7326,0 v -3.857 m 0,0 V 373 h -7.6745 m 7.6745,3.857 H 83.3837 M 91.0581,373 v 27 m 0,0 h 9.2089 m 0,0 v -3.857 m 0,3.857 h 7.375 m -7.375,-11.571 4.917,-3.858 m -4.917,3.858 H 116 m -15.733,0 v 3.857 m 9.833,-11.572 5.9,-4.628 v 4.628 z m 0,0 -2.458,1.929 m 8.358,1.928 h -10.816 m 0,0 2.458,-1.928 m 8.358,9.643 h -15.733 m 0,0 v 3.857 m 15.349,0 h -15.349 m 7.375,-13.5 V 400"
           stroke="#000000" />
      </g>
      <g
         id="105">
        <rect
           id="b105"
           x="193.112"
           y="348.5"
           width="42.530602"
           height="77"
           fill="#a5a5a5"
           stroke="#000000" />
        <rect
           id="m105"
           x="235.83701"
           y="348.5"
           width="33.6633"
           height="44.696999"
           fill="#a5a5a5"
           stroke="#000000" />
        <rect
           id="unit105"
           x="192.5"
           y="349.5"
           width="76"
           height="75"
           stroke="#000000"
           stroke-width="3" />
      </g>
      <g
         id="107">
        <rect
           id="m107"
           x="269.09601"
           y="348.5"
           width="34.9091"
           height="45.1633"
           fill="#a5a5a5"
           stroke="#000000" />
        <rect
           id="b107"
           x="304.5"
           y="348.5"
           width="41"
           height="76.7985"
           fill="#a5a5a5"
           stroke="#000000" />
        <rect
           id="unit107"
           x="268.5"
           y="349.5"
           width="76"
           height="75"
           stroke="#000000"
           stroke-width="3" />
      </g>
      <g
         id="109">
        <rect
           id="b109"
           x="345.5"
           y="348.5"
           width="41"
           height="77"
           fill="#a5a5a5"
           stroke="#000000" />
        <rect
           id="m109"
           x="386.48001"
           y="348.5"
           width="34.020401"
           height="45.868698"
           fill="#a5a5a5"
           stroke="#000000" />
        <rect
           id="unit109"
           x="344.5"
           y="349.5"
           width="77"
           height="75"
           stroke="#000000"
           stroke-width="3" />
      </g>
      <rect
         id="kamera hran"
         x="421.5"
         y="348.5"
         width="33"
         height="77"
         fill="#d9d9d9"
         stroke="#000000" />
    </g>
    <rect
       id="wc"
       x="539.5"
       y="348.5"
       width="34"
       height="77"
       fill="#d9d9d9"
       stroke="#000000" />
  </g>
</svg>
