<svg width="1100" height="691" viewBox="0 0 1100 691" fill="none" xmlns="http://www.w3.org/2000/svg">
<g id="Floor1">
<rect id="zal" x="501.5" y="425.5" width="164" height="265" fill="#D9D9D9" stroke="black"/>
<rect id="coridor4" x="496.5" y="325.5" width="529" height="23" fill="#D9D9D9" stroke="black"/>
<rect id="coridor1" x="4.5" y="426.5" width="497" height="21" fill="#D9D9D9" stroke="black"/>
<g id="odd2">
<g clip-path="url(#clip0_9_75)">
<rect x="455" y="348" width="571" height="78" fill="white"/>
<rect id="kvant" x="643.5" y="347.5" width="83" height="78" fill="#D9D9D9" stroke="black"/>
<g id="114">
<rect id="m114" x="947.284" y="378.745" width="34.2941" height="46.7551" fill="#A5A5A5" stroke="black"/>
<rect id="b114" x="981.794" y="348.5" width="43.7059" height="77" fill="#A5A5A5" stroke="black"/>
<rect id="union114" x="947.5" y="349.5" width="77" height="75" stroke="black" stroke-width="3"/>
</g>
<g id="kitchen">
<path id="Vector 1" d="M912.795 377.449H924.727M924.727 377.449H932.682V367.898H928.705M924.727 377.449V367.898H928.705M928.705 367.898V371.48V364.714" stroke="black"/>
<rect id="kitchen_2" x="912.5" y="348.5" width="34" height="77" fill="#D9D9D9" stroke="black"/>
</g>
<g id="112">
<rect id="m112" x="876.5" y="379.5" width="34" height="46" fill="#A5A5A5" stroke="black"/>
<rect id="b112" x="836.5" y="348.5" width="40" height="77" fill="#A5A5A5" stroke="black"/>
<rect id="unit112" x="837.5" y="349.5" width="74" height="75" stroke="black" stroke-width="3"/>
</g>
<rect id="enter" x="794.5" y="348.5" width="42" height="77" fill="#D9D9D9" stroke="black"/>
<rect id="vahta" x="760.5" y="348.5" width="34" height="77" fill="#D9D9D9" stroke="black"/>
<g id="110">
<rect id="m110" x="727.5" y="378.5" width="32" height="45" fill="#A5A5A5" stroke="black"/>
<rect id="unit110" x="728.5" y="349.5" width="30" height="75" stroke="black" stroke-width="3"/>
</g>
<rect id="coridor2" x="573.5" y="348.5" width="35" height="77" fill="#D9D9D9" stroke="black"/>
<rect id="storage" x="455.5" y="348.5" width="86" height="77" fill="#D9D9D9" stroke="black"/>
<rect id="coridor3" x="608.5" y="346.5" width="35" height="80" fill="#D9D9D9" stroke="black"/>
</g>
<rect x="455.5" y="348.5" width="570" height="77" stroke="black"/>
</g>
<g id="odd1" clip-path="url(#clip1_9_75)">
<rect width="497" height="78" transform="translate(4 448)" fill="white"/>
<g id="100">
<rect id="m100(4)" x="114.332" y="481.26" width="37.1684" height="44.24" fill="#A5A5A5" stroke="black"/>
<rect id="m100(3)" x="81.6158" y="481.26" width="32.4947" height="44.24" fill="#A5A5A5" stroke="black"/>
<rect id="m100(2)" x="48.9" y="481.26" width="32.4947" height="44.24" fill="#A5A5A5" stroke="black"/>
<rect id="m100(1)" x="4.5" y="481.26" width="44.1789" height="44.24" fill="#A5A5A5" stroke="black"/>
<rect id="unit100" x="5.5" y="449.5" width="145" height="75" stroke="black" stroke-width="3"/>
</g>
<rect id="unknow" x="151.5" y="448.5" width="41" height="77" fill="#D9D9D9" stroke="black"/>
<g id="102">
<rect id="b102" x="192.5" y="448.5" width="41.1837" height="77" fill="#A5A5A5" stroke="black"/>
<rect id="m102" x="233.888" y="481.26" width="35.6122" height="44.24" fill="#A5A5A5" stroke="black"/>
<rect id="unit102" x="193.5" y="449.5" width="75" height="75" stroke="black" stroke-width="3"/>
</g>
<g id="104">
<rect id="b104" x="303.38" y="448.5" width="39.56" height="77" fill="#A5A5A5" stroke="black"/>
<rect id="m104" x="269.06" y="481.26" width="34.1" height="44.24" fill="#A5A5A5" stroke="black"/>
<rect id="unit104" x="268.5" y="449.5" width="75" height="75" stroke="black" stroke-width="3"/>
</g>
<g id="kitchen_3">
<rect id="kitchen_4" x="419.5" y="448.5" width="35" height="77" fill="#D9D9D9" stroke="black"/>
<path id="Vector 1_2" d="M419.4 479.98H431.4M431.4 479.98H439.4V470.62H435.4M431.4 479.98V470.62H435.4M435.4 470.62V474.13V467.5" stroke="black"/>
</g>
<rect id="unknown1" x="453.5" y="448.5" width="48" height="77" fill="#D9D9D9" stroke="black"/>
<g id="106">
<rect id="m106" x="384.314" y="481.26" width="35.1856" height="44.24" fill="#A5A5A5" stroke="black"/>
<rect id="b106" x="343.304" y="448.5" width="40.8144" height="77" fill="#A5A5A5" stroke="black"/>
<rect id="unit106" x="343.5" y="449.5" width="75" height="75" stroke="black" stroke-width="3"/>
</g>
</g>
<g id="even2" clip-path="url(#clip2_9_75)">
<rect width="530" height="79" transform="translate(496 247)" fill="white"/>
<rect id="kastellana" x="496.5" y="247.5" width="77" height="78" fill="#D9D9D9" stroke="black"/>
<g id="stairs2">
<rect id="stairs2_2" x="572.5" y="247.5" width="37.5761" height="78" fill="#D9D9D9" stroke="black"/>
<path id="stairs2_3" d="M572 277H581.808M590.354 305V301M590.354 305H581.808M590.354 305H592.063M572.418 305H581.808M609.582 305H600.275M590.354 301H572.418M590.354 301V297M590.354 297H572.418M590.354 297V293M590.354 293H572.835M590.354 293V289M590.354 289H572.835M590.354 289V285M590.354 285H572.835M590.354 285V281M590.354 281V277H581.808M590.354 281H572.418M581.808 277V305M581.808 305H592.063M592.063 305V301M592.063 305H600.275M592.063 293L597.538 289M592.063 293H609.582M592.063 293V297M603.013 285L609.582 280.2V285H603.013ZM603.013 285L600.275 287M609.582 289H597.538M597.538 289L600.275 287M609.582 297H592.063M592.063 297V301M610 301H592.063M600.275 287V305" stroke="black"/>
</g>
<g id="117">
<rect id="m117" x="610.5" y="247.5" width="32.7778" height="46.2" fill="#A5A5A5" stroke="black"/>
<rect id="b117" x="643.51" y="247.5" width="40.4545" height="79" fill="#A5A5A5" stroke="black"/>
<rect id="unit117" x="611.5" y="248.5" width="73" height="77" stroke="black" stroke-width="3"/>
</g>
<g id="115">
<rect id="b115" x="682.5" y="247.5" width="43.4444" height="78" fill="#A5A5A5" stroke="black"/>
<rect id="m115" x="726.136" y="247.5" width="33.7475" height="45.61" fill="#A5A5A5" stroke="black"/>
<rect id="unit115" x="683.5" y="248.5" width="77" height="76" stroke="black" stroke-width="3"/>
</g>
<g id="113">
<rect id="m113" x="760.288" y="247.5" width="32.8788" height="45.61" fill="#A5A5A5" stroke="black"/>
<rect id="b113" x="793.379" y="247.5" width="41.5455" height="78" fill="#A5A5A5" stroke="black"/>
<rect id="unit113" x="760.5" y="248.5" width="75" height="76" stroke="black" stroke-width="3"/>
</g>
<g id="111">
<rect id="b111" x="834.5" y="247.5" width="43.0737" height="78" fill="#A5A5A5" stroke="black"/>
<rect id="m111" x="877.742" y="247.5" width="34.7579" height="46.4" fill="#A5A5A5" stroke="black"/>
<rect id="unit111" x="835.5" y="249.29" width="76" height="75.21" stroke="black" stroke-width="3"/>
</g>
<g id="stairs">
<rect id="stairs2_4" x="912.5" y="247.5" width="33" height="78" fill="#D9D9D9" stroke="black"/>
<path id="stairs_2" d="M912 277.81H920.886M928.614 305.46V301.51M928.614 305.46H920.886M928.614 305.46H930.159M912.165 305.46H920.886M946 305.46H937.585M928.614 301.51H912.165M928.614 301.51V297.56M928.614 297.56H912M928.614 297.56V293.61M928.614 293.61H912.773M928.614 293.61V289.66M928.614 289.66H912.773M928.614 289.66V285.71M928.614 285.71H912.773M928.614 285.71V281.76M928.614 281.76V277.81H920.886M928.614 281.76H912M920.886 277.81V305.46M920.886 305.46H930.159M930.159 305.46V301.51M930.159 305.46H937.585M930.159 293.61L935.109 289.66M930.159 293.61H946M930.159 293.61V297.56M940.06 285.71L946 280.97V285.71H940.06ZM940.06 285.71L937.585 287.685M946 289.66H935.109M935.109 289.66L937.585 287.685M946 297.56H930.159M930.159 297.56V301.51M945.614 301.51H930.159M937.585 287.685V305.46" stroke="black"/>
</g>
<rect id="service" x="945.5" y="247.5" width="36" height="78" fill="#D9D9D9" stroke="black"/>
<rect id="komenda" x="980.5" y="247.5" width="45" height="78" fill="#D9D9D9" stroke="black"/>
</g>
<g id="even1" clip-path="url(#clip3_9_75)">
<rect width="451" height="78" transform="translate(4 348)" fill="white"/>
<g id="101">
<rect id="m101(1)" x="4.5" y="348.5" width="44.03" height="46.9286" fill="#A5A5A5" stroke="black"/>
<rect id="m101(2)" x="48.74" y="348.5" width="33.76" height="46.9286" fill="#A5A5A5" stroke="black"/>
<rect id="unit101" x="5.5" y="349.5" width="76" height="75" stroke="black" stroke-width="3"/>
</g>
<g id="103">
<rect id="m103" x="115.5" y="348.5" width="34.4694" height="44.697" fill="#A5A5A5" stroke="black"/>
<rect id="b103" x="150.163" y="348.5" width="42.5306" height="77" fill="#A5A5A5" stroke="black"/>
<rect id="unit103" x="116.5" y="349.5" width="76" height="75" stroke="black" stroke-width="3"/>
</g>
<g id="stairs_3">
<rect id="stairs_4" x="83.5" y="348.5" width="32" height="77" fill="#D9D9D9" stroke="black"/>
<path id="stairs_5" d="M83.3837 373H91.0581M98.7326 400V396.143M98.7326 400H91.0581M98.7326 400H100.267M83.3837 400H91.0581M116 400H107.642M98.7326 396.143H83.3837M98.7326 396.143V392.286M98.7326 392.286H83.3837M98.7326 392.286V388.429M98.7326 388.429H83M98.7326 388.429V384.571M98.7326 384.571H83M98.7326 384.571V380.714M98.7326 380.714H83M98.7326 380.714V376.857M98.7326 376.857V373H91.0581M98.7326 376.857H83.3837M91.0581 373V400M91.0581 400H100.267M100.267 400V396.143M100.267 400H107.642M100.267 388.429L105.184 384.571M100.267 388.429H116M100.267 388.429V392.286M110.1 380.714L116 376.086V380.714H110.1ZM110.1 380.714L107.642 382.643M116 384.571H105.184M105.184 384.571L107.642 382.643M116 392.286H100.267M100.267 392.286V396.143M115.616 396.143H100.267M107.642 382.643V400" stroke="black"/>
</g>
<g id="105">
<rect id="b105" x="193.112" y="348.5" width="42.5306" height="77" fill="#A5A5A5" stroke="black"/>
<rect id="m105" x="235.837" y="348.5" width="33.6633" height="44.697" fill="#A5A5A5" stroke="black"/>
<rect id="unit105" x="192.5" y="349.5" width="76" height="75" stroke="black" stroke-width="3"/>
</g>
<g id="107">
<rect id="m107" x="269.096" y="348.5" width="34.9091" height="45.1633" fill="#A5A5A5" stroke="black"/>
<rect id="b107" x="304.5" y="348.5" width="41" height="76.7985" fill="#A5A5A5" stroke="black"/>
<rect id="unit107" x="268.5" y="349.5" width="76" height="75" stroke="black" stroke-width="3"/>
</g>
<g id="109">
<rect id="b109" x="345.5" y="348.5" width="41" height="77" fill="#A5A5A5" stroke="black"/>
<rect id="m109" x="386.48" y="348.5" width="34.0204" height="45.8687" fill="#A5A5A5" stroke="black"/>
<rect id="unit109" x="344.5" y="349.5" width="77" height="75" stroke="black" stroke-width="3"/>
</g>
<rect id="kamera hran" x="421.5" y="348.5" width="33" height="77" fill="#D9D9D9" stroke="black"/>
</g>
<rect id="wc" x="539.5" y="348.5" width="34" height="77" fill="#D9D9D9" stroke="black"/>
</g>
<defs>
<clipPath id="clip0_9_75">
<rect x="455" y="348" width="571" height="78" fill="white"/>
</clipPath>
<clipPath id="clip1_9_75">
<rect width="497" height="78" fill="white" transform="translate(4 448)"/>
</clipPath>
<clipPath id="clip2_9_75">
<rect width="530" height="79" fill="white" transform="translate(496 247)"/>
</clipPath>
<clipPath id="clip3_9_75">
<rect width="451" height="78" fill="white" transform="translate(4 348)"/>
</clipPath>
</defs>
</svg>
