<svg width="1297" height="564" viewBox="0 0 1297 564" fill="none" xmlns="http://www.w3.org/2000/svg">
<g id="Floor1">
<rect id="zal" x="625.5" y="268.5" width="217" height="295" fill="#D9D9D9" stroke="black"/>
<rect id="storage" x="573.5" y="129.5" width="107" height="98" fill="#D9D9D9" stroke="black"/>
<rect id="wc" x="680.5" y="130.5" width="45" height="97" fill="#D9D9D9" stroke="black"/>
<rect id="coridor4" x="625.5" y="99.5" width="671" height="31" fill="#D9D9D9" stroke="black"/>
<rect id="coridor3" x="725.5" y="130.5" width="41" height="97" fill="#D9D9D9" stroke="black"/>
<rect id="coridor2" x="625.5" y="226.5" width="217" height="42" fill="#D9D9D9" stroke="black"/>
<rect id="coridor1" x="1.5" y="226.5" width="624" height="28" fill="#D9D9D9" stroke="black"/>
<g id="odd2">
<g clip-path="url(#clip0_9_75)">
<rect x="766" y="130" width="531" height="97" fill="white"/>
<g id="114">
<rect id="m114" x="1195.5" y="168.112" width="44" height="58.3878" fill="#A5A5A5" stroke="black"/>
<rect id="b114" x="1239.5" y="130.5" width="56" height="96" fill="#A5A5A5" stroke="black"/>
<rect id="block114" x="1195.5" y="131.5" width="99" height="94" stroke="black" stroke-width="3"/>
</g>
<g id="kitchen">
<path id="Vector 1" d="M1152 167H1167M1167 167H1177V155H1172M1167 167V155H1172M1172 155V159.5V151" stroke="black"/>
<rect id="kitchen_2" x="1151.5" y="130.5" width="43" height="97" fill="#D9D9D9" stroke="black"/>
</g>
<g id="112">
<rect id="m112" x="1107.5" y="168.112" width="44" height="58.3878" fill="#A5A5A5" stroke="black"/>
<rect id="b112" x="1056.5" y="130.5" width="51" height="96" fill="#A5A5A5" stroke="black"/>
<rect id="block112" x="1057.5" y="131.5" width="94.9898" height="94" stroke="black" stroke-width="3"/>
</g>
<rect id="enter" x="1003.5" y="130.5" width="53" height="97" fill="#D9D9D9" stroke="black"/>
<rect id="vahta" x="960.5" y="130.5" width="43" height="97" fill="#D9D9D9" stroke="black"/>
<rect id="kvant" x="765.5" y="130.5" width="150" height="97" fill="#D9D9D9" stroke="black"/>
<rect id="m4" x="915.5" y="168.5" width="45" height="59" fill="#A5A5A5" stroke="black"/>
</g>
<rect x="766.5" y="130.5" width="530" height="96" stroke="black"/>
</g>
<g id="odd1" clip-path="url(#clip1_9_75)">
<rect width="624" height="100" transform="translate(1 254)" fill="white"/>
<rect id="unknown1" x="573.5" y="254.5" width="52" height="99" fill="#D9D9D9" stroke="black"/>
<g id="kitchen_3">
<rect id="kitchen_4" x="529.5" y="254.5" width="44" height="99" fill="#D9D9D9" stroke="black"/>
<path id="Vector 1_2" d="M529.5 295H544.5M544.5 295H554.5V283H549.5M544.5 295V283H549.5M549.5 283V287.5V279" stroke="black"/>
</g>
<g id="106">
<rect id="m106" x="485.5" y="296.5" width="44" height="57" fill="#A5A5A5" stroke="black"/>
<rect id="b106" x="434.5" y="254.5" width="51" height="99" fill="#A5A5A5" stroke="black"/>
<rect id="block106" x="434.5" y="255.5" width="94" height="97" stroke="black" stroke-width="3"/>
</g>
<g id="104">
<rect id="b104" x="382.5" y="254.5" width="51" height="99" fill="#A5A5A5" stroke="black"/>
<rect id="m104" x="338.5" y="296.5" width="44" height="57" fill="#A5A5A5" stroke="black"/>
<rect id="block104" x="337.5" y="255.5" width="97" height="97" stroke="black" stroke-width="3"/>
</g>
<rect id="unknow" x="190.5" y="254.5" width="51" height="99" fill="#D9D9D9" stroke="black"/>
<g id="102">
<rect id="b102" x="241.5" y="254.5" width="52" height="99" fill="#A5A5A5" stroke="black"/>
<rect id="m102" x="293.5" y="296.5" width="45" height="57" fill="#A5A5A5" stroke="black"/>
<rect id="block102" x="242.5" y="255.5" width="95" height="97" stroke="black" stroke-width="3"/>
</g>
<g id="100">
<rect id="m100(4)" x="142.5" y="296.5" width="48" height="57" fill="#A5A5A5" stroke="black"/>
<rect id="m100(3)" x="100.5" y="296.5" width="42" height="57" fill="#A5A5A5" stroke="black"/>
<rect id="m100(2)" x="58.5" y="296.5" width="42" height="57" fill="#A5A5A5" stroke="black"/>
<rect id="m100(1)" x="1.5" y="296.5" width="57" height="57" fill="#A5A5A5" stroke="black"/>
<rect id="block100" x="2.5" y="255.5" width="187" height="97" stroke="black" stroke-width="3"/>
</g>
</g>
<g id="even2" clip-path="url(#clip2_9_75)">
<rect width="672" height="100" transform="translate(625)" fill="white"/>
<rect id="kastellana" x="625.5" y="0.5" width="99" height="99" fill="#D9D9D9" stroke="black"/>
<g id="stairs2">
<rect id="stairs2_2" x="724.5" y="0.5" width="45" height="99" fill="#D9D9D9" stroke="black"/>
<path id="stairs2_3" d="M724 38H735.744M745.977 73V68M745.977 73H735.744M745.977 73H748.023M724.5 73H735.744M769 73H757.856M745.977 68H724.5M745.977 68V63M745.977 63H724.5M745.977 63V58M745.977 58H725M745.977 58V53M745.977 53H725M745.977 53V48M745.977 48H725M745.977 48V43M745.977 43V38H735.744M745.977 43H724.5M735.744 38V73M735.744 73H748.023M748.023 73V68M748.023 73H757.856M748.023 58L754.578 53M748.023 58H769M748.023 58V63M761.134 48L769 42V48H761.134ZM761.134 48L757.856 50.5M769 53H754.578M754.578 53L757.856 50.5M769 63H748.023M748.023 63V68M769.5 68H748.023M757.856 50.5V73" stroke="black"/>
</g>
<g id="117">
<rect id="m117" x="769.5" y="0.5" width="43" height="58" fill="#A5A5A5" stroke="black"/>
<rect id="b117" x="812.5" y="0.5" width="53" height="99" fill="#A5A5A5" stroke="black"/>
<rect id="block117" x="770.5" y="1.5" width="96" height="97" stroke="black" stroke-width="3"/>
</g>
<g id="115">
<rect id="b115" x="865.5" y="0.5" width="54" height="99" fill="#A5A5A5" stroke="black"/>
<rect id="m115" x="919.5" y="0.5" width="42" height="58" fill="#A5A5A5" stroke="black"/>
<rect id="block115" x="866.5" y="1.5" width="96" height="97" stroke="black" stroke-width="3"/>
</g>
<g id="113">
<rect id="m113" x="962.5" y="0.5" width="42" height="58" fill="#A5A5A5" stroke="black"/>
<rect id="b113" x="1004.5" y="0.5" width="53" height="99" fill="#A5A5A5" stroke="black"/>
<rect id="block113" x="962.5" y="1.5" width="96" height="97" stroke="black" stroke-width="3"/>
</g>
<g id="111">
<rect id="b111" x="1057.5" y="0.5" width="52.5579" height="99" fill="#A5A5A5" stroke="black"/>
<rect id="m111" x="1110.05" y="0.5" width="42.4526" height="59" fill="#A5A5A5" stroke="black"/>
<rect id="block111" x="1058.5" y="2.5" width="93" height="96" stroke="black" stroke-width="3"/>
</g>
<rect id="service" x="1197.5" y="0.5" width="42" height="99" fill="#D9D9D9" stroke="black"/>
<rect id="komenda" x="1240.5" y="0.5" width="56" height="99" fill="#D9D9D9" stroke="black"/>
<g id="stairs">
<rect id="stairs2_4" x="1153.5" y="0.5" width="43" height="99" fill="#D9D9D9" stroke="black"/>
<path id="stairs_2" d="M1153 39H1164.5M1174.5 74V69M1174.5 74H1164.5M1174.5 74H1176.5M1153.21 74H1164.5M1197 74H1186.11M1174.5 69H1153.21M1174.5 69V64M1174.5 64H1153M1174.5 64V59M1174.5 59H1154M1174.5 59V54M1174.5 54H1154M1174.5 54V49M1174.5 49H1154M1174.5 49V44M1174.5 44V39H1164.5M1174.5 44H1153M1164.5 39V74M1164.5 74H1176.5M1176.5 74V69M1176.5 74H1186.11M1176.5 59L1182.91 54M1176.5 59H1197M1176.5 59V64M1189.31 49L1197 43V49H1189.31ZM1189.31 49L1186.11 51.5M1197 54H1182.91M1182.91 54L1186.11 51.5M1197 64H1176.5M1176.5 64V69M1196.5 69H1176.5M1186.11 51.5V74" stroke="black"/>
</g>
</g>
<g id="even1" clip-path="url(#clip3_9_75)">
<rect width="572" height="98" transform="translate(1 129)" fill="white"/>
<g id="101">
<rect id="m101(1)" x="1.5" y="129.5" width="56" height="60" fill="#A5A5A5" stroke="black"/>
<rect id="m101(2)" x="57.5" y="129.5" width="43" height="60" fill="#A5A5A5" stroke="black"/>
<rect id="block101" x="2.5" y="130.5" width="97" height="95" stroke="black" stroke-width="3"/>
</g>
<g id="stairs_3">
<rect id="stairs_4" x="101.5" y="129.5" width="43" height="98" fill="#D9D9D9" stroke="black"/>
<path id="stairs_5" d="M102 163H112M122 198V193M122 198H112M122 198H124M102 198H112M144.5 198H133.609M122 193H102M122 193V188M122 188H102M122 188V183M122 183H101.5M122 183V178M122 178H101.5M122 178V173M122 173H101.5M122 173V168M122 168V163H112M122 168H102M112 163V198M112 198H124M124 198V193M124 198H133.609M124 183L130.406 178M124 183H144.5M124 183V188M136.812 173L144.5 167V173H136.812ZM136.812 173L133.609 175.5M144.5 178H130.406M130.406 178L133.609 175.5M144.5 188H124M124 188V193M144 193H124M133.609 175.5V198" stroke="black"/>
</g>
<g id="103">
<rect id="m103" x="144.5" y="129.5" width="43" height="57" fill="#A5A5A5" stroke="black"/>
<rect id="b103" x="187.5" y="129.5" width="53" height="98" fill="#A5A5A5" stroke="black"/>
<rect id="block103" x="145.5" y="130.5" width="95" height="95" stroke="black" stroke-width="3"/>
</g>
<g id="105">
<rect id="105b" x="241.5" y="129.5" width="53" height="98" fill="#A5A5A5" stroke="black"/>
<rect id="105m" x="294.5" y="129.5" width="42" height="57" fill="#A5A5A5" stroke="black"/>
<rect id="block105" x="240.5" y="130.5" width="95" height="95" stroke="black" stroke-width="3"/>
</g>
<g id="107">
<rect id="m107" x="336.5" y="129.5" width="44" height="57" fill="#A5A5A5" stroke="black"/>
<rect id="b107" x="380.5" y="129.5" width="52" height="98" fill="#A5A5A5" stroke="black"/>
<rect id="block107" x="335.5" y="130.5" width="96" height="95" stroke="black" stroke-width="3"/>
</g>
<g id="109">
<rect id="b109" x="432.52" y="129.5" width="52.5408" height="98" fill="#A5A5A5" stroke="black"/>
<rect id="m109" x="485.051" y="129.5" width="43.449" height="57" fill="#A5A5A5" stroke="black"/>
<rect id="block109" x="431.5" y="130.5" width="94.9898" height="95" stroke="black" stroke-width="3"/>
</g>
<rect id="kamera hran" x="528.5" y="129.5" width="45" height="97" fill="#D9D9D9" stroke="black"/>
</g>
<rect id="block117_2" x="916.5" y="132.5" width="42" height="92" stroke="black" stroke-width="3"/>
</g>
<defs>
<clipPath id="clip0_9_75">
<rect x="766" y="130" width="531" height="97" fill="white"/>
</clipPath>
<clipPath id="clip1_9_75">
<rect width="624" height="100" fill="white" transform="translate(1 254)"/>
</clipPath>
<clipPath id="clip2_9_75">
<rect width="672" height="100" fill="white" transform="translate(625)"/>
</clipPath>
<clipPath id="clip3_9_75">
<rect width="572" height="98" fill="white" transform="translate(1 129)"/>
</clipPath>
</defs>
</svg>
